HIERARCHY
ROOT Hips
{
	OFFSET 0.000000 100.481300 0.000000
	CHANNELS 6 Xposition Yposition Zposition Xrotation Yrotation Zrotation
	JOINT Spine
	{
		OFFSET -0.279200 12.230698 -2.892100
		CHANNELS 3 Xrotation Yrotation Zrotation
		JOINT Spine1
		{
			OFFSET -0.325700 14.269203 -3.374200
			CHANNELS 3 Xrotation Yrotation Zrotation
			JOINT Spine2
			{
				OFFSET -0.372300 16.307602 -0.352600
				CHANNELS 3 Xrotation Yrotation Zrotation
				JOINT Neck
				{
					OFFSET -0.418800 17.814194 8.416900
					CHANNELS 3 Xrotation Yrotation Zrotation
					JOINT Head
					{
						OFFSET 0.000000 7.031097 3.806800
						CHANNELS 3 Xrotation Yrotation Zrotation
						JOINT HeadTop_End
						{
							OFFSET 0.000000 24.646606 12.978600
							CHANNELS 3 Xrotation Yrotation Zrotation
							End Site
							{
								OFFSET 0.000000 27.854965 0.000000
							}
						}
					}
				}
				JOINT LeftShoulder
				{
					OFFSET 16.952999 14.495407 -7.737500
					CHANNELS 3 Xrotation Yrotation Zrotation
					JOINT LeftArm
					{
						OFFSET 9.308998 -2.777710 0.208600
						CHANNELS 3 Xrotation Yrotation Zrotation
						JOINT LeftForeArm
						{
							OFFSET 29.972298 0.000000 0.000000
							CHANNELS 3 Xrotation Yrotation Zrotation
							JOINT LeftHand
							{
								OFFSET 26.026505 0.000000 0.000000
								CHANNELS 3 Xrotation Yrotation Zrotation
								JOINT LeftHandThumb1
								{
									OFFSET 12.240501 -7.147949 9.207150
									CHANNELS 3 Xrotation Yrotation Zrotation
									JOINT LeftHandThumb2
									{
										OFFSET 4.138618 -2.389435 2.389433
										CHANNELS 3 Xrotation Yrotation Zrotation
										JOINT LeftHandThumb3
										{
											OFFSET 2.726913 -1.574387 1.574386
											CHANNELS 3 Xrotation Yrotation Zrotation
											JOINT LeftHandThumb4
											{
												OFFSET 3.941010 -2.275345 2.275342
												CHANNELS 3 Xrotation Yrotation Zrotation
												End Site
												{
													OFFSET -0.005798 5.087799 0.009903
												}
											}
										}
									}
								}
								JOINT LeftHandIndex1
								{
									OFFSET 24.424698 -1.985611 5.953459
									CHANNELS 3 Xrotation Yrotation Zrotation
									JOINT LeftHandIndex2
									{
										OFFSET 6.426697 0.000000 0.000000
										CHANNELS 3 Xrotation Yrotation Zrotation
										JOINT LeftHandIndex3
										{
											OFFSET 5.337898 0.000000 0.000000
											CHANNELS 3 Xrotation Yrotation Zrotation
											JOINT LeftHandIndex4
											{
												OFFSET 4.409401 0.000000 0.000000
												CHANNELS 3 Xrotation Yrotation Zrotation
												End Site
												{
													OFFSET 0.000000 4.409363 0.014373
												}
											}
										}
									}
								}
								JOINT LeftHandMiddle1
								{
									OFFSET 23.810104 0.000000 0.000000
									CHANNELS 3 Xrotation Yrotation Zrotation
									JOINT LeftHandMiddle2
									{
										OFFSET 7.176498 0.000000 0.000000
										CHANNELS 3 Xrotation Yrotation Zrotation
										JOINT LeftHandMiddle3
										{
											OFFSET 6.774902 0.000000 0.000000
											CHANNELS 3 Xrotation Yrotation Zrotation
											JOINT LeftHandMiddle4
											{
												OFFSET 5.403328 0.000000 0.000000
												CHANNELS 3 Xrotation Yrotation Zrotation
												End Site
												{
													OFFSET -0.027702 5.403244 0.017414
												}
											}
										}
									}
								}
								JOINT LeftHandRing1
								{
									OFFSET 22.908401 -0.839279 -6.020567
									CHANNELS 3 Xrotation Yrotation Zrotation
									JOINT LeftHandRing2
									{
										OFFSET 6.337502 0.000000 0.000000
										CHANNELS 3 Xrotation Yrotation Zrotation
										JOINT LeftHandRing3
										{
											OFFSET 5.779297 0.000000 0.000000
											CHANNELS 3 Xrotation Yrotation Zrotation
											JOINT LeftHandRing4
											{
												OFFSET 4.965698 0.000000 0.000000
												CHANNELS 3 Xrotation Yrotation Zrotation
												End Site
												{
													OFFSET 0.000000 4.965668 0.016186
												}
											}
										}
									}
								}
								JOINT LeftHandPinky1
								{
									OFFSET 20.037003 -1.530319 -10.950146
									CHANNELS 3 Xrotation Yrotation Zrotation
									JOINT LeftHandPinky2
									{
										OFFSET 5.254700 0.000000 0.000000
										CHANNELS 3 Xrotation Yrotation Zrotation
										JOINT LeftHandPinky3
										{
											OFFSET 4.810204 0.000000 0.000000
											CHANNELS 3 Xrotation Yrotation Zrotation
											JOINT LeftHandPinky4
											{
												OFFSET 3.647202 0.000000 0.000000
												CHANNELS 3 Xrotation Yrotation Zrotation
												End Site
												{
													OFFSET 0.000000 3.647186 0.011889
												}
											}
										}
									}
								}
							}
						}
					}
				}
				JOINT RightShoulder
				{
					OFFSET -15.141001 14.495407 -7.737500
					CHANNELS 3 Xrotation Yrotation Zrotation
					JOINT RightArm
					{
						OFFSET -9.308998 -2.777710 0.208500
						CHANNELS 3 Xrotation Yrotation Zrotation
						JOINT RightForeArm
						{
							OFFSET -29.972300 0.000000 0.000000
							CHANNELS 3 Xrotation Yrotation Zrotation
							JOINT RightHand
							{
								OFFSET -26.026505 0.000000 0.000000
								CHANNELS 3 Xrotation Yrotation Zrotation
								JOINT RightHandThumb1
								{
									OFFSET -12.240601 -7.148026 9.207092
									CHANNELS 3 Xrotation Yrotation Zrotation
									JOINT RightHandThumb2
									{
										OFFSET -4.138618 -2.389435 2.389433
										CHANNELS 3 Xrotation Yrotation Zrotation
										JOINT RightHandThumb3
										{
											OFFSET -2.726974 -1.574417 1.574421
											CHANNELS 3 Xrotation Yrotation Zrotation
											JOINT RightHandThumb4
											{
												OFFSET -3.941010 -2.275345 2.275343
												CHANNELS 3 Xrotation Yrotation Zrotation
												End Site
												{
													OFFSET 0.005814 5.087799 0.009927
												}
											}
										}
									}
								}
								JOINT RightHandIndex1
								{
									OFFSET -24.424698 -1.985657 5.953444
									CHANNELS 3 Xrotation Yrotation Zrotation
									JOINT RightHandIndex2
									{
										OFFSET -6.426697 0.000000 0.000000
										CHANNELS 3 Xrotation Yrotation Zrotation
										JOINT RightHandIndex3
										{
											OFFSET -5.337898 0.000000 0.000000
											CHANNELS 3 Xrotation Yrotation Zrotation
											JOINT RightHandIndex4
											{
												OFFSET -4.409401 0.000000 0.000000
												CHANNELS 3 Xrotation Yrotation Zrotation
												End Site
												{
													OFFSET 0.000000 4.409363 0.014408
												}
											}
										}
									}
								}
								JOINT RightHandMiddle1
								{
									OFFSET -23.810097 0.000000 0.000000
									CHANNELS 3 Xrotation Yrotation Zrotation
									JOINT RightHandMiddle2
									{
										OFFSET -7.176498 0.000000 0.000000
										CHANNELS 3 Xrotation Yrotation Zrotation
										JOINT RightHandMiddle3
										{
											OFFSET -6.774902 0.000000 0.000000
											CHANNELS 3 Xrotation Yrotation Zrotation
											JOINT RightHandMiddle4
											{
												OFFSET -5.403328 0.000000 0.000000
												CHANNELS 3 Xrotation Yrotation Zrotation
												End Site
												{
													OFFSET 0.027702 5.403244 0.017457
												}
											}
										}
									}
								}
								JOINT RightHandRing1
								{
									OFFSET -22.908302 -0.839325 -6.020576
									CHANNELS 3 Xrotation Yrotation Zrotation
									JOINT RightHandRing2
									{
										OFFSET -6.337502 0.000000 0.000000
										CHANNELS 3 Xrotation Yrotation Zrotation
										JOINT RightHandRing3
										{
											OFFSET -5.779297 0.000000 0.000000
											CHANNELS 3 Xrotation Yrotation Zrotation
											JOINT RightHandRing4
											{
												OFFSET -4.965698 0.000000 0.000000
												CHANNELS 3 Xrotation Yrotation Zrotation
												End Site
												{
													OFFSET 0.000000 4.965668 0.016226
												}
											}
										}
									}
								}
								JOINT RightHandPinky1
								{
									OFFSET -20.037003 -1.530334 -10.950259
									CHANNELS 3 Xrotation Yrotation Zrotation
									JOINT RightHandPinky2
									{
										OFFSET -5.254700 0.000000 0.000000
										CHANNELS 3 Xrotation Yrotation Zrotation
										JOINT RightHandPinky3
										{
											OFFSET -4.810204 0.000000 0.000000
											CHANNELS 3 Xrotation Yrotation Zrotation
											JOINT RightHandPinky4
											{
												OFFSET -3.647202 0.000000 0.000000
												CHANNELS 3 Xrotation Yrotation Zrotation
												End Site
												{
													OFFSET 0.000000 3.647186 0.011917
												}
											}
										}
									}
								}
							}
						}
					}
				}
			}
		}
	}
	JOINT LeftUpLeg
	{
		OFFSET 15.427100 -6.655098 0.678600
		CHANNELS 3 Xrotation Yrotation Zrotation
		JOINT LeftLeg
		{
			OFFSET 4.081073 -39.591068 13.024000
			CHANNELS 3 Xrotation Yrotation Zrotation
			JOINT LeftFoot
			{
				OFFSET -4.081074 -37.707932 -15.979700
				CHANNELS 3 Xrotation Yrotation Zrotation
				JOINT LeftToeBase
				{
					OFFSET 5.346399 -15.068900 20.645000
					CHANNELS 3 Xrotation Yrotation Zrotation
					JOINT LeftToe_End
					{
						OFFSET 2.754700 0.931300 11.300900
						CHANNELS 3 Xrotation Yrotation Zrotation
						End Site
						{
							OFFSET 0.000000 11.669021 0.000000
						}
					}
				}
			}
		}
	}
	JOINT RightUpLeg
	{
		OFFSET -15.569500 -6.655098 0.678600
		CHANNELS 3 Xrotation Yrotation Zrotation
		JOINT RightLeg
		{
			OFFSET -4.081825 -39.591045 13.023800
			CHANNELS 3 Xrotation Yrotation Zrotation
			JOINT RightFoot
			{
				OFFSET 4.081824 -37.707954 -15.979600
				CHANNELS 3 Xrotation Yrotation Zrotation
				JOINT RightToeBase
				{
					OFFSET -5.346400 -15.068900 20.645000
					CHANNELS 3 Xrotation Yrotation Zrotation
					JOINT RightToe_End
					{
						OFFSET -2.754700 0.931300 11.300900
						CHANNELS 3 Xrotation Yrotation Zrotation
						End Site
						{
							OFFSET 0.000000 11.669021 0.000000
						}
					}
				}
			}
		}
	}
}
MOTION
Frames: 5
Frame Time: 0.033333
1.069985 97.621307 -0.669816 -3.756940 -5.192731 -3.902776 3.282186 1.515971 2.886995 1.151847 0.339457 1.557987 1.126379 0.361544 1.560949 5.626311 -0.078962 0.454683 -7.563342 1.375724 -0.081964 0.000000 -0.000000 0.000000 1.058053 -17.443854 -12.319391 3.918464 -19.986662 -69.764385 0.000013 -1.459363 -0.000002 -33.231012 -1.368465 -6.185429 -0.663621 2.160388 4.832290 11.846228 25.421182 17.073946 -13.811180 3.534260 9.033583 -0.000001 0.000002 0.000001 0.019863 -0.969579 -7.593524 0.267873 1.752894 -17.375726 0.057679 0.820950 -8.037996 -0.000001 -0.000000 0.000001 -0.076310 2.665781 -15.696820 0.268785 1.755804 -17.405516 0.300526 1.853981 -18.413353 0.000000 -0.000001 -0.000002 0.136905 3.641773 -21.133522 0.386205 2.093703 -20.900533 0.282701 1.799579 -17.854195 -0.000001 0.000001 -0.000003 0.925697 5.556952 -27.127845 0.268794 1.755845 -17.405865 0.241908 1.667701 -16.505878 0.000001 0.000001 0.000001 1.198335 15.342637 14.708324 13.155204 27.557252 58.783538 0.000002 6.690034 0.000001 -20.179423 -0.514150 6.782789 -1.665244 -0.174477 -4.219029 12.708428 -29.825346 -16.138120 -15.556866 -3.558953 -12.711446 -0.000000 0.000000 -0.000003 0.044370 1.262952 6.824008 0.213587 -1.395592 17.401539 0.045955 -0.653319 8.046706 -0.000000 -0.000001 -0.000001 -0.136221 -2.205113 14.998863 0.214451 -1.398339 17.436833 0.239766 -1.476528 18.446263 0.000001 -0.000001 -0.000000 0.030604 -3.075763 20.451021 0.308450 -1.668290 20.948503 0.225821 -1.434040 17.897111 0.000000 -0.000000 0.000001 0.743938 -4.887803 26.473402 0.214454 -1.398378 17.437239 0.193010 -1.328186 16.535818 -0.000000 -0.000000 0.000004 -10.207130 14.666887 11.506552 12.128994 1.648207 4.069559 0.797263 0.788275 -8.235071 -4.936033 0.000003 -0.000000 0.000000 -0.000000 -0.000000 3.681957 -10.081150 1.725024 6.593273 -8.477622 -2.386093 -5.332014 -3.045521 4.994967 -7.275088 0.000003 0.000000 0.000000 -0.000000 0.000000 
1.062245 97.615250 -0.664378 -3.757110 -5.217386 -3.888550 3.282301 1.515972 2.882578 1.151847 0.329565 1.557987 1.126379 0.351766 1.560949 5.713062 -0.044123 0.372247 -7.443953 1.539928 -0.161562 -0.000000 0.000000 -0.000000 1.059498 -17.470072 -12.296074 3.917490 -19.996502 -69.776878 -0.000011 -1.498434 0.000002 -33.238255 -1.372607 -6.188656 -0.670198 2.140026 4.832020 11.846678 25.418214 17.073385 -13.811190 3.534254 9.033565 0.000001 -0.000001 0.000001 0.022840 -0.970898 -7.556990 0.267871 1.752894 -17.375731 0.057731 0.821298 -8.041448 0.000000 0.000000 0.000002 -0.076703 2.657980 -15.622504 0.269736 1.758836 -17.436565 0.301546 1.857033 -18.444777 -0.000001 -0.000000 0.000001 0.135540 3.635582 -21.072238 0.386206 2.093703 -20.900521 0.282702 1.799576 -17.854222 0.000001 0.000000 -0.000003 0.922195 5.550636 -27.105233 0.268795 1.755840 -17.405885 0.241908 1.667698 -16.505878 0.000000 -0.000000 -0.000000 1.202212 15.311329 14.706183 13.146735 27.544865 58.786803 -0.000012 6.690040 0.000014 -20.176705 -0.507256 6.735852 -1.682362 -0.140626 -4.297116 12.678514 -29.760493 -16.133223 -15.550264 -3.597158 -12.719878 0.000003 0.000000 -0.000002 0.049966 1.298644 6.689442 0.213585 -1.395596 17.401517 0.045949 -0.653328 8.046685 0.000002 -0.000002 -0.000005 -0.129785 -2.216243 14.851821 0.214444 -1.398341 17.436822 0.239771 -1.476528 18.446277 0.000000 -0.000001 -0.000001 0.023684 -3.052625 20.351039 0.307547 -1.665929 20.917593 0.225043 -1.431634 17.865932 0.000000 0.000001 -0.000001 0.736157 -4.875968 26.302126 0.214457 -1.398372 17.437256 0.193012 -1.328187 16.535821 0.000000 -0.000001 0.000002 -10.195961 14.665815 11.511226 12.142168 1.678508 4.067111 0.787833 0.792903 -8.260041 -4.936033 -0.000000 0.000001 0.000001 0.000001 0.000000 3.660168 -10.079583 1.709379 6.630512 -8.478624 -2.387970 -5.351196 -3.043878 4.995934 -7.275088 -0.000006 -0.000002 -0.000000 -0.000001 0.000000 
1.051209 97.605423 -0.660428 -3.757266 -5.235436 -3.866332 3.282522 1.516060 2.874235 1.142684 0.319324 1.557986 1.117225 0.341573 1.562672 5.824155 -0.003855 0.267006 -7.268131 1.742238 -0.300217 -0.000000 0.000000 0.000000 1.058696 -17.487962 -12.286241 3.936869 -20.028124 -69.755499 -0.000003 -1.589400 -0.000006 -33.263643 -1.389227 -6.185325 -0.690474 2.097752 4.841407 11.846470 25.400985 17.070439 -13.811186 3.534260 9.033575 0.000001 -0.000000 -0.000004 0.085833 -0.936349 -7.448635 0.268309 1.754283 -17.389940 0.057957 0.822932 -8.057580 -0.000001 0.000001 0.000003 -0.081169 2.634755 -15.540945 0.268796 1.755842 -17.405892 0.300592 1.854179 -18.415384 -0.000001 -0.000001 0.000003 0.134675 3.629923 -20.993287 0.386207 2.093703 -20.900534 0.282702 1.799578 -17.854212 -0.000000 -0.000000 -0.000000 0.907113 5.522533 -27.046250 0.269269 1.757349 -17.421318 0.242360 1.669215 -16.521338 0.000000 0.000000 0.000001 1.205089 15.289414 14.690193 13.123331 27.532959 58.804602 -0.000011 6.690043 0.000007 -20.155490 -0.504083 6.692654 -1.691295 -0.177104 -4.295520 12.702556 -29.784976 -16.112314 -15.552757 -3.582614 -12.716687 0.000003 0.000000 -0.000005 0.045341 1.273292 6.793987 0.213580 -1.395595 17.401509 0.045958 -0.653325 8.046690 0.000002 -0.000003 -0.000005 -0.131409 -2.216346 14.921872 0.214446 -1.398347 17.436817 0.239770 -1.476524 18.446273 0.000001 0.000001 0.000003 0.018520 -3.039164 20.361820 0.307444 -1.665665 20.914207 0.224952 -1.431364 17.862521 -0.000000 -0.000001 -0.000000 0.743231 -4.887687 26.415004 0.214460 -1.398380 17.437227 0.193011 -1.328181 16.535830 -0.000000 0.000000 0.000003 -10.187506 14.664076 11.512140 12.156489 1.697134 4.061620 0.778859 0.797044 -8.280203 -4.936030 -0.000007 0.000000 0.000000 0.000000 0.000000 3.633600 -10.076820 1.685058 6.685807 -8.480495 -2.386564 -5.385016 -3.041245 4.996234 -7.275095 0.000001 -0.000002 -0.000000 -0.000001 -0.000000 
1.037059 97.595406 -0.657494 -3.757387 -5.247549 -3.839439 3.272928 1.510071 2.865456 1.130964 0.309911 1.561236 1.105559 0.331373 1.565250 5.965431 0.051050 0.133252 -7.017462 2.039026 -0.522276 0.000000 -0.000000 -0.000000 1.058777 -17.494143 -12.281633 3.970272 -20.077018 -69.713241 -0.000000 -1.715731 0.000009 -33.283806 -1.401455 -6.165428 -0.692962 2.123488 4.854463 11.829394 25.343980 17.063091 -13.811619 3.532510 9.033178 0.000001 0.000002 0.000001 0.140882 -0.885596 -7.508697 0.268414 1.754631 -17.393531 0.058003 0.823220 -8.060316 -0.000000 -0.000000 -0.000000 -0.092864 2.595875 -15.579465 0.270154 1.760169 -17.450170 0.302092 1.858675 -18.461703 0.000001 0.000000 0.000002 0.158399 3.693754 -21.041308 0.386206 2.093704 -20.900517 0.282700 1.799580 -17.854198 -0.000000 0.000000 0.000004 0.916301 5.539861 -27.072843 0.269375 1.757695 -17.424805 0.242461 1.669560 -16.524828 -0.000000 0.000001 0.000000 1.209680 15.279371 14.664382 13.100894 27.534093 58.829881 -0.000002 6.690020 -0.000020 -20.138178 -0.495862 6.677534 -1.729251 -0.176807 -4.380226 12.685652 -29.722753 -16.089327 -15.549948 -3.598943 -12.720279 -0.000000 0.000001 -0.000001 0.046973 1.303902 6.723006 0.213587 -1.395595 17.401531 0.045951 -0.653322 8.046689 -0.000000 -0.000001 -0.000001 -0.140336 -2.177897 14.870061 0.214448 -1.398349 17.436809 0.239775 -1.476529 18.446268 -0.000001 0.000001 0.000001 0.019881 -3.040771 20.316604 0.307597 -1.666072 20.919491 0.225088 -1.431770 17.867635 -0.000000 -0.000000 -0.000001 0.756673 -4.916934 26.316726 0.214460 -1.398377 17.437242 0.193007 -1.328182 16.535821 0.000001 -0.000003 0.000002 -10.178766 14.662055 11.501253 12.167856 1.702306 4.056537 0.785800 0.799212 -8.301804 -4.936035 0.000001 0.000000 0.000000 -0.000000 -0.000000 3.609256 -10.073826 1.662597 6.745186 -8.480894 -2.393143 -5.426451 -3.040429 4.999735 -7.275092 -0.000012 -0.000000 0.000000 -0.000002 -0.000000 
1.019777 97.586998 -0.655005 -3.766580 -5.255491 -3.808904 3.261909 1.504184 2.856442 1.117303 0.300844 1.568822 1.091968 0.320943 1.568473 6.140574 0.133688 -0.039137 -6.674638 2.501885 -0.848321 -0.000000 0.000000 0.000000 1.060720 -17.505553 -12.267106 4.004680 -20.125154 -69.676016 0.000005 -1.875558 -0.000004 -33.296329 -1.409369 -6.120129 -0.698282 2.107268 4.822931 11.822870 25.332931 17.064789 -13.812464 3.528975 9.032251 0.000000 0.000001 0.000003 0.192874 -0.847704 -7.511939 0.268328 1.754348 -17.390606 0.057944 0.822803 -8.056243 -0.000001 -0.000000 0.000001 -0.084172 2.629745 -15.607423 0.269723 1.758793 -17.436162 0.301724 1.857576 -18.450329 -0.000000 -0.000001 -0.000001 0.172576 3.731165 -21.054557 0.386207 2.093706 -20.900531 0.282703 1.799578 -17.854210 0.000001 0.000000 -0.000001 0.912399 5.532707 -27.051924 0.268390 1.754553 -17.392723 0.241529 1.666408 -16.492725 0.000001 0.000001 -0.000004 1.213890 15.271649 14.640543 13.098333 27.563447 58.831548 0.000004 6.693719 0.000030 -20.149379 -0.490074 6.680178 -1.773045 -0.171687 -4.490593 12.687950 -29.689391 -16.053246 -15.551782 -3.588272 -12.717927 -0.000000 -0.000000 -0.000002 0.047927 1.305852 6.706615 0.213590 -1.395603 17.401502 0.045941 -0.653321 8.046715 -0.000000 -0.000001 -0.000002 -0.150664 -2.142408 14.908484 0.214052 -1.397084 17.420618 0.239355 -1.475289 18.430142 -0.000000 -0.000000 -0.000000 0.026112 -3.057210 20.307252 0.307746 -1.666448 20.924368 0.225181 -1.432047 17.871315 -0.000000 -0.000001 -0.000003 0.749992 -4.904124 26.289600 0.214460 -1.398386 17.437382 0.193018 -1.328196 16.535905 -0.000001 0.000001 0.000005 -10.164939 14.667490 11.486356 12.173317 1.701277 4.053532 0.805071 0.800795 -8.327477 -4.936030 -0.000010 -0.000001 0.000001 -0.000000 0.000000 3.586296 -10.071005 1.640071 6.805255 -8.483085 -2.404061 -5.462856 -3.037011 5.001471 -7.275095 0.000001 -0.000001 -0.000000 0.000003 0.000000 
